<mxfile host="app.diagrams.net" agent="Mozilla/5.0 (Windows NT 10.0; Win64; x64) AppleWebKit/537.36 (KHTML, like Gecko) Chrome/129.0.0.0 Safari/537.36" version="24.7.17">
  <diagram name="Page-1" id="5f0bae14-7c28-e335-631c-24af17079c00">
    <mxGraphModel dx="1752" dy="481" grid="1" gridSize="10" guides="1" tooltips="1" connect="1" arrows="1" fold="1" page="1" pageScale="1" pageWidth="827" pageHeight="1169" background="none" math="0" shadow="0">
      <root>
        <mxCell id="0" />
        <mxCell id="1" parent="0" />
        <mxCell id="39150e848f15840c-1" value="&lt;span style=&quot;font-size: 8px;&quot;&gt;Web App Service&lt;/span&gt;" style="verticalAlign=top;align=left;spacingTop=8;spacingLeft=2;spacingRight=12;shape=cube;size=10;direction=south;fontStyle=4;html=1;rounded=0;shadow=0;comic=0;labelBackgroundColor=none;strokeWidth=1;fontFamily=Verdana;fontSize=12" parent="1" vertex="1">
          <mxGeometry x="-190" width="790" height="410" as="geometry" />
        </mxCell>
        <mxCell id="39150e848f15840c-2" value="Web App Server" style="verticalAlign=top;align=left;spacingTop=8;spacingLeft=2;spacingRight=12;shape=cube;size=10;direction=south;fontStyle=4;html=1;rounded=0;shadow=0;comic=0;labelBackgroundColor=none;strokeWidth=1;fontFamily=Verdana;fontSize=12;flipH=0;flipV=0;" parent="1" vertex="1">
          <mxGeometry x="851" y="40" width="780" height="710" as="geometry" />
        </mxCell>
        <mxCell id="39150e848f15840c-3" value="Block" style="verticalAlign=top;align=left;spacingTop=8;spacingLeft=2;spacingRight=12;shape=cube;size=10;direction=south;fontStyle=4;html=1;rounded=0;shadow=0;comic=0;labelBackgroundColor=none;strokeWidth=1;fontFamily=Verdana;fontSize=12" parent="1" vertex="1">
          <mxGeometry x="920" y="770" width="260" height="150" as="geometry" />
        </mxCell>
        <mxCell id="39150e848f15840c-4" value="&lt;font style=&quot;&quot;&gt;&lt;span style=&quot;font-size: 8px;&quot;&gt;«artifact»&lt;/span&gt;&lt;br&gt;&lt;span style=&quot;font-size: 8px;&quot;&gt;&lt;b&gt;MagridMVC.Presentation.dll&lt;/b&gt;&lt;/span&gt;&lt;br&gt;&lt;/font&gt;&lt;div&gt;&lt;font style=&quot;&quot;&gt;&lt;span style=&quot;font-size: 8px;&quot;&gt;&lt;b&gt;&lt;br&gt;&lt;/b&gt;&lt;/span&gt;&lt;/font&gt;&lt;/div&gt;" style="html=1;rounded=0;shadow=0;comic=0;labelBackgroundColor=none;strokeWidth=1;fontFamily=Verdana;fontSize=12;align=center;verticalAlign=top;" parent="1" vertex="1">
          <mxGeometry x="100" y="215" width="60" height="20" as="geometry" />
        </mxCell>
        <mxCell id="39150e848f15840c-5" value="&lt;font style=&quot;font-size: 7px;&quot;&gt;MagridMvc&lt;/font&gt;" style="shape=component;align=left;spacingLeft=36;rounded=0;shadow=0;comic=0;labelBackgroundColor=none;strokeWidth=1;fontFamily=Verdana;fontSize=12;html=1;verticalAlign=top;" parent="1" vertex="1">
          <mxGeometry x="70" y="75" width="70" height="50" as="geometry" />
        </mxCell>
        <mxCell id="39150e848f15840c-6" value="" style="ellipse;whiteSpace=wrap;html=1;rounded=0;shadow=0;comic=0;labelBackgroundColor=none;strokeWidth=1;fontFamily=Verdana;fontSize=12;align=center;verticalAlign=top;" parent="1" vertex="1">
          <mxGeometry x="110" y="135" width="20" height="20" as="geometry" />
        </mxCell>
        <mxCell id="39150e848f15840c-14" style="edgeStyle=elbowEdgeStyle;rounded=0;html=1;labelBackgroundColor=none;startArrow=none;startFill=0;startSize=8;endArrow=none;endFill=0;endSize=16;fontFamily=Verdana;fontSize=12;verticalAlign=top;" parent="1" source="39150e848f15840c-6" target="39150e848f15840c-5" edge="1">
          <mxGeometry relative="1" as="geometry" />
        </mxCell>
        <mxCell id="39150e848f15840c-15" style="edgeStyle=orthogonalEdgeStyle;rounded=0;html=1;labelBackgroundColor=none;startArrow=none;startFill=0;startSize=8;endArrow=open;endFill=0;endSize=16;fontFamily=Verdana;fontSize=12;dashed=1;verticalAlign=top;" parent="1" source="39150e848f15840c-5" target="39150e848f15840c-4" edge="1">
          <mxGeometry relative="1" as="geometry">
            <Array as="points">
              <mxPoint x="270" y="100" />
              <mxPoint x="270" y="185" />
            </Array>
          </mxGeometry>
        </mxCell>
        <mxCell id="39150e848f15840c-17" style="edgeStyle=orthogonalEdgeStyle;rounded=0;html=1;labelBackgroundColor=none;startArrow=none;startFill=0;startSize=8;endArrow=none;endFill=0;endSize=16;fontFamily=Verdana;fontSize=12;verticalAlign=top;" parent="1" source="39150e848f15840c-3" target="39150e848f15840c-2" edge="1">
          <mxGeometry relative="1" as="geometry">
            <Array as="points">
              <mxPoint x="695" y="845" />
              <mxPoint x="695" y="630" />
              <mxPoint x="1240" y="630" />
            </Array>
          </mxGeometry>
        </mxCell>
        <mxCell id="39150e848f15840c-18" style="edgeStyle=orthogonalEdgeStyle;rounded=0;html=1;labelBackgroundColor=none;startArrow=none;startFill=0;startSize=8;endArrow=none;endFill=0;endSize=16;fontFamily=Verdana;fontSize=12;verticalAlign=top;" parent="1" edge="1">
          <mxGeometry relative="1" as="geometry">
            <Array as="points">
              <mxPoint x="260" y="495" />
            </Array>
            <mxPoint x="260" y="800" as="sourcePoint" />
            <mxPoint x="290" y="280" as="targetPoint" />
          </mxGeometry>
        </mxCell>
        <mxCell id="39150e848f15840c-7" value="MagridMvc" style="shape=component;align=left;spacingLeft=36;rounded=0;shadow=0;comic=0;labelBackgroundColor=none;strokeWidth=1;fontFamily=Verdana;fontSize=12;html=1;verticalAlign=top;flipH=0;flipV=0;" parent="1" vertex="1">
          <mxGeometry x="870" y="85" width="140" height="85" as="geometry" />
        </mxCell>
        <mxCell id="39150e848f15840c-8" value="«artifact»&lt;br&gt;&lt;b&gt;MagridMVC.Presentation.dll&lt;/b&gt;" style="html=1;rounded=0;shadow=0;comic=0;labelBackgroundColor=none;strokeWidth=1;fontFamily=Verdana;fontSize=12;align=center;verticalAlign=top;flipH=0;flipV=0;" parent="1" vertex="1">
          <mxGeometry x="1280" y="115" width="210" height="40" as="geometry" />
        </mxCell>
        <mxCell id="nldJ0U19RzKdqp_YIV6V-9" value="«artifact»&lt;br&gt;&lt;b&gt;MagridMVC.Infrastructure.dll&lt;/b&gt;&lt;div&gt;&lt;b&gt;&lt;br&gt;&lt;/b&gt;&lt;/div&gt;" style="html=1;rounded=0;shadow=0;comic=0;labelBackgroundColor=none;strokeWidth=1;fontFamily=Verdana;fontSize=12;align=center;verticalAlign=top;flipH=0;flipV=0;" vertex="1" parent="1">
          <mxGeometry x="1280" y="195" width="220" height="60" as="geometry" />
        </mxCell>
        <mxCell id="nldJ0U19RzKdqp_YIV6V-10" value="«artifact»&lt;br&gt;&lt;b&gt;MagridMVC.Services.dll&lt;/b&gt;&lt;div&gt;&lt;b&gt;&lt;br&gt;&lt;/b&gt;&lt;/div&gt;" style="html=1;rounded=0;shadow=0;comic=0;labelBackgroundColor=none;strokeWidth=1;fontFamily=Verdana;fontSize=12;align=center;verticalAlign=top;flipH=0;flipV=0;" vertex="1" parent="1">
          <mxGeometry x="1300" y="300" width="180" height="60" as="geometry" />
        </mxCell>
        <mxCell id="nldJ0U19RzKdqp_YIV6V-11" value="«artifact»&lt;br&gt;&lt;b&gt;MagridMVC.Presentation.dll&lt;/b&gt;&lt;div&gt;&lt;b&gt;&lt;br&gt;&lt;/b&gt;&lt;/div&gt;" style="html=1;rounded=0;shadow=0;comic=0;labelBackgroundColor=none;strokeWidth=1;fontFamily=Verdana;fontSize=12;align=center;verticalAlign=top;flipH=0;flipV=0;" vertex="1" parent="1">
          <mxGeometry x="1400" y="400" width="210" height="60" as="geometry" />
        </mxCell>
        <mxCell id="nldJ0U19RzKdqp_YIV6V-12" value="«artifact»&lt;br&gt;&lt;b&gt;MagridMVC.Domain.dll&lt;/b&gt;&lt;div&gt;&lt;b&gt;&lt;br&gt;&lt;/b&gt;&lt;/div&gt;" style="html=1;rounded=0;shadow=0;comic=0;labelBackgroundColor=none;strokeWidth=1;fontFamily=Verdana;fontSize=12;align=center;verticalAlign=top;flipH=0;flipV=0;" vertex="1" parent="1">
          <mxGeometry x="1300" y="500" width="180" height="60" as="geometry" />
        </mxCell>
        <mxCell id="nldJ0U19RzKdqp_YIV6V-13" value="«artifact»&lt;br&gt;&lt;b&gt;MagridMVC.SharedLibrary.dll&lt;/b&gt;&lt;div&gt;&lt;b&gt;&lt;br&gt;&lt;/b&gt;&lt;/div&gt;" style="html=1;rounded=0;shadow=0;comic=0;labelBackgroundColor=none;strokeWidth=1;fontFamily=Verdana;fontSize=12;align=center;verticalAlign=top;flipH=0;flipV=0;" vertex="1" parent="1">
          <mxGeometry x="1290" y="610" width="220" height="60" as="geometry" />
        </mxCell>
        <mxCell id="nldJ0U19RzKdqp_YIV6V-14" value="«artifact»&lt;br&gt;&lt;b&gt;MagridMVC.Extension.dll&lt;/b&gt;&lt;div&gt;&lt;b&gt;&lt;br&gt;&lt;/b&gt;&lt;/div&gt;" style="html=1;rounded=0;shadow=0;comic=0;labelBackgroundColor=none;strokeWidth=1;fontFamily=Verdana;fontSize=12;align=center;verticalAlign=top;flipH=0;flipV=0;" vertex="1" parent="1">
          <mxGeometry x="1190" y="400" width="190" height="60" as="geometry" />
        </mxCell>
      </root>
    </mxGraphModel>
  </diagram>
</mxfile>
